<svg width="200" height="200" xmlns="http://www.w3.org/2000/svg">
  <!-- 钉钉二维码 -->
  <rect width="200" height="200" fill="white" stroke="#e5e7eb" stroke-width="1"/>
  
  <!-- QR码模拟 -->
  <g fill="#000">
    <!-- 定位标识 -->
    <rect x="10" y="10" width="50" height="50" fill="none" stroke="#000" stroke-width="6"/>
    <rect x="20" y="20" width="30" height="30"/>
    
    <rect x="140" y="10" width="50" height="50" fill="none" stroke="#000" stroke-width="6"/>
    <rect x="150" y="20" width="30" height="30"/>
    
    <rect x="10" y="140" width="50" height="50" fill="none" stroke="#000" stroke-width="6"/>
    <rect x="20" y="150" width="30" height="30"/>
    
    <!-- 数据模块 -->
    <rect x="75" y="25" width="8" height="8"/>
    <rect x="95" y="35" width="8" height="8"/>
    <rect x="115" y="25" width="8" height="8"/>
    <rect x="125" y="35" width="8" height="8"/>
    
    <rect x="25" y="75" width="8" height="8"/>
    <rect x="45" y="85" width="8" height="8"/>
    <rect x="75" y="85" width="8" height="8"/>
    <rect x="95" y="95" width="8" height="8"/>
    <rect x="115" y="85" width="8" height="8"/>
    <rect x="135" y="95" width="8" height="8"/>
    <rect x="155" y="85" width="8" height="8"/>
    <rect x="175" y="95" width="8" height="8"/>
    
    <rect x="75" y="115" width="8" height="8"/>
    <rect x="95" y="125" width="8" height="8"/>
    <rect x="115" y="115" width="8" height="8"/>
    <rect x="135" y="125" width="8" height="8"/>
    <rect x="155" y="115" width="8" height="8"/>
    <rect x="175" y="125" width="8" height="8"/>
    
    <rect x="75" y="155" width="8" height="8"/>
    <rect x="95" y="165" width="8" height="8"/>
    <rect x="115" y="155" width="8" height="8"/>
    <rect x="135" y="165" width="8" height="8"/>
    <rect x="155" y="155" width="8" height="8"/>
    <rect x="175" y="165" width="8" height="8"/>
  </g>
  
  <!-- 钉钉Logo -->
  <circle cx="100" cy="100" r="25" fill="#2C7AF7"/>
  <text x="100" y="105" font-family="Arial, sans-serif" font-size="16" font-weight="bold" text-anchor="middle" fill="white">钉钉</text>
</svg>
